<svg width="16" height="16" xmlns="http://www.w3.org/2000/svg" class="bi bi-person-plus">

 <g>
  <title>background</title>
  <rect fill="none" id="canvas_background" height="402" width="582" y="-1" x="-1"/>
 </g>
 <g>
  <title>Layer 1</title>
  <path fill="#00142d" id="svg_1" d="m6,8a3,3 0 1 0 0,-6a3,3 0 0 0 0,6zm2,-3a2,2 0 1 1 -4,0a2,2 0 0 1 4,0zm4,8c0,1 -1,1 -1,1l-10,0s-1,0 -1,-1s1,-4 6,-4s6,3 6,4zm-1,-0.004c-0.001,-0.246 -0.154,-0.986 -0.832,-1.664c-0.652,-0.652 -1.879,-1.332 -4.168,-1.332c-2.29,0 -3.516,0.68 -4.168,1.332c-0.678,0.678 -0.83,1.418 -0.832,1.664l10,0z"/>
  <path fill="#00142d" id="svg_2" d="m13.5,5a0.5,0.5 0 0 1 0.5,0.5l0,1.5l1.5,0a0.5,0.5 0 0 1 0,1l-1.5,0l0,1.5a0.5,0.5 0 0 1 -1,0l0,-1.5l-1.5,0a0.5,0.5 0 0 1 0,-1l1.5,0l0,-1.5a0.5,0.5 0 0 1 0.5,-0.5z" fill-rule="evenodd"/>
 </g>
</svg>