<svg width="16" height="16" xmlns="http://www.w3.org/2000/svg" class="bi bi-stopwatch">

 <g>
  <title>background</title>
  <rect fill="none" id="canvas_background" height="402" width="582" y="-1" x="-1"/>
 </g>
 <g>
  <title>Layer 1</title>
  <path fill="#00142d" id="svg_1" d="m8.5,5.6a0.5,0.5 0 1 0 -1,0l0,2.9l-3,0a0.5,0.5 0 0 0 0,1l3.5,0a0.5,0.5 0 0 0 0.5,-0.5l0,-3.4z"/>
  <path fill="#00142d" id="svg_2" d="m6.5,1a0.5,0.5 0 0 1 0.5,-0.5l2,0a0.5,0.5 0 0 1 0,1l0,0.57c1.36,0.196 2.594,0.78 3.584,1.64a0.715,0.715 0 0 1 0.012,-0.013l0.354,-0.354l-0.354,-0.353a0.5,0.5 0 0 1 0.707,-0.708l1.414,1.415a0.5,0.5 0 1 1 -0.707,0.707l-0.353,-0.354l-0.354,0.354a0.512,0.512 0 0 1 -0.013,0.012a7,7 0 1 1 -6.29,-2.345l0,-0.571a0.5,0.5 0 0 1 -0.5,-0.5zm1.5,2a6,6 0 1 0 0.001,12a6,6 0 0 0 -0.001,-12z"/>
 </g>
</svg>