<svg width="16" height="16" xmlns="http://www.w3.org/2000/svg" class="bi bi-building">

 <g>
  <title>background</title>
  <rect fill="none" id="canvas_background" height="402" width="582" y="-1" x="-1"/>
 </g>
 <g>
  <title>Layer 1</title>
  <path fill="#00142d" id="svg_1" d="m14.763,0.075a0.5,0.5 0 0 1 0.237,0.425l0,15a0.5,0.5 0 0 1 -0.5,0.5l-3,0a0.5,0.5 0 0 1 -0.5,-0.5l0,-1.5l-1,0l0,1.5a0.5,0.5 0 0 1 -0.5,0.5l-9,0a0.5,0.5 0 0 1 -0.5,-0.5l0,-5.5a0.5,0.5 0 0 1 0.342,-0.474l5.658,-1.886l0,-3.14a0.5,0.5 0 0 1 0.276,-0.447l8,-4a0.5,0.5 0 0 1 0.487,0.022zm-8.763,8.619l-5,1.666l0,4.64l5,0l0,-6.306zm1,6.306l2,0l0,-1.5a0.5,0.5 0 0 1 0.5,-0.5l2,0a0.5,0.5 0 0 1 0.5,0.5l0,1.5l2,0l0,-13.691l-7,3.5l0,10.191z" fill-rule="evenodd"/>
  <path fill="#00142d" id="svg_2" d="m2,11l1,0l0,1l-1,0l0,-1zm2,0l1,0l0,1l-1,0l0,-1zm-2,2l1,0l0,1l-1,0l0,-1zm2,0l1,0l0,1l-1,0l0,-1zm4,-4l1,0l0,1l-1,0l0,-1zm2,0l1,0l0,1l-1,0l0,-1zm-2,2l1,0l0,1l-1,0l0,-1zm2,0l1,0l0,1l-1,0l0,-1zm2,-2l1,0l0,1l-1,0l0,-1zm0,2l1,0l0,1l-1,0l0,-1zm-4,-4l1,0l0,1l-1,0l0,-1zm6,4l1,0l0,1l-1,0l0,-5l0,4zm2,0l1,0l0,1l-1,0l0,-5l0,4zm-8,-2l1,0l0,1l-1,0l0,-5l0,4zm10,2l1,0l0,1l-1,0l0,-7l0,6zm2,0l1,0l0,1l-1,0l0,-7l0,6zm0,-2l1,0l0,1l-1,0l0,-7l0,6z"/>
 </g>
</svg>