<svg width="16" height="16" xmlns="http://www.w3.org/2000/svg" class="bi bi-emoji-frown">

 <g>
  <title>background</title>
  <rect fill="none" id="canvas_background" height="402" width="582" y="-1" x="-1"/>
 </g>
 <g>
  <title>Layer 1</title>
  <path fill="#ffffff" id="svg_1" d="m8,15a7,7 0 1 1 0,-14a7,7 0 0 1 0,14zm0,1a8,8 0 1 0 0,-16a8,8 0 0 0 0,16z"/>
  <path fill="#ffffff" id="svg_2" d="m4.285,12.433a0.5,0.5 0 0 0 0.683,-0.183a3.498,3.498 0 0 1 3.032,-1.75c1.295,0 2.426,0.703 3.032,1.75a0.5,0.5 0 0 0 0.866,-0.5a4.498,4.498 0 0 0 -3.898,-2.25a4.5,4.5 0 0 0 -3.898,2.25a0.5,0.5 0 0 0 0.183,0.683zm2.715,-5.933c0,0.828 -0.448,1.5 -1,1.5s-1,-0.672 -1,-1.5s0.448,-1.5 1,-1.5s1,0.672 1,1.5zm4,0c0,0.828 -0.448,1.5 -1,1.5s-1,-0.672 -1,-1.5s0.448,-1.5 1,-1.5s1,0.672 1,1.5z"/>
 </g>
</svg>