<svg width="16" height="16" xmlns="http://www.w3.org/2000/svg" class="bi bi-facebook">

 <g>
  <title>background</title>
  <rect fill="none" id="canvas_background" height="402" width="582" y="-1" x="-1"/>
 </g>
 <g>
  <title>Layer 1</title>
  <path fill="#00142d" id="svg_1" d="m16,8.049c0,-4.446 -3.582,-8.05 -8,-8.05c-4.42,0.001 -8.002,3.604 -8.002,8.051c0,4.017 2.926,7.347 6.75,7.951l0,-5.625l-2.03,0l0,-2.326l2.032,0l0,-1.775c0,-2.017 1.195,-3.131 3.022,-3.131c0.876,0 1.791,0.157 1.791,0.157l0,1.98l-1.009,0c-0.993,0 -1.303,0.621 -1.303,1.258l0,1.51l2.218,0l-0.354,2.326l-1.865,0l0,5.625c3.824,-0.604 6.75,-3.934 6.75,-7.951z"/>
 </g>
</svg>