<svg width="16" height="16" xmlns="http://www.w3.org/2000/svg" class="bi bi-instagram">

 <g>
  <title>background</title>
  <rect fill="none" id="canvas_background" height="402" width="582" y="-1" x="-1"/>
 </g>
 <g>
  <title>Layer 1</title>
  <path fill="#00142d" id="svg_1" d="m8,0c-2.171,0 -2.444,0.01 -3.297,0.048c-0.853,0.04 -1.434,0.174 -1.943,0.372a3.917,3.917 0 0 0 -1.417,0.923a3.927,3.927 0 0 0 -0.923,1.417c-0.198,0.508 -0.333,1.09 -0.372,1.94c-0.038,0.855 -0.048,1.127 -0.048,3.301c0,2.172 0.01,2.444 0.048,3.297c0.04,0.852 0.174,1.433 0.372,1.942c0.205,0.526 0.478,0.972 0.923,1.417c0.444,0.445 0.89,0.719 1.416,0.923c0.51,0.198 1.09,0.333 1.942,0.372c0.854,0.038 1.126,0.048 3.299,0.048s2.444,-0.01 3.298,-0.048c0.851,-0.04 1.434,-0.174 1.943,-0.372a3.916,3.916 0 0 0 1.416,-0.923c0.445,-0.445 0.718,-0.891 0.923,-1.417c0.197,-0.509 0.332,-1.09 0.372,-1.942c0.038,-0.853 0.048,-1.125 0.048,-3.298s-0.01,-2.445 -0.048,-3.299c-0.04,-0.851 -0.175,-1.433 -0.372,-1.941a3.926,3.926 0 0 0 -0.923,-1.417a3.911,3.911 0 0 0 -1.417,-0.923c-0.51,-0.198 -1.092,-0.333 -1.943,-0.372c-0.854,-0.038 -1.125,-0.048 -3.299,-0.048l0.003,0l-0.001,0zm-0.716,1.442l0.718,0c2.136,0 2.389,0.007 3.232,0.046c0.78,0.035 1.204,0.166 1.486,0.275c0.373,0.145 0.64,0.319 0.92,0.599c0.28,0.28 0.453,0.546 0.598,0.92c0.11,0.281 0.24,0.705 0.275,1.485c0.039,0.843 0.047,1.096 0.047,3.231s-0.008,2.389 -0.047,3.232c-0.035,0.78 -0.166,1.203 -0.275,1.485a2.47,2.47 0 0 1 -0.599,0.919c-0.28,0.28 -0.546,0.453 -0.92,0.598c-0.28,0.11 -0.704,0.24 -1.485,0.276c-0.843,0.038 -1.096,0.047 -3.232,0.047s-2.39,-0.009 -3.233,-0.047c-0.78,-0.036 -1.203,-0.166 -1.485,-0.276a2.478,2.478 0 0 1 -0.92,-0.598a2.48,2.48 0 0 1 -0.6,-0.92c-0.109,-0.281 -0.24,-0.705 -0.275,-1.485c-0.038,-0.843 -0.046,-1.096 -0.046,-3.233c0,-2.136 0.008,-2.388 0.046,-3.231c0.036,-0.78 0.166,-1.204 0.276,-1.486c0.145,-0.373 0.319,-0.64 0.599,-0.92c0.28,-0.28 0.546,-0.453 0.92,-0.598c0.282,-0.11 0.705,-0.24 1.485,-0.276c0.738,-0.034 1.024,-0.044 2.515,-0.045l0,0.002zm4.988,1.328a0.96,0.96 0 1 0 0,1.92a0.96,0.96 0 0 0 0,-1.92zm-4.27,1.122a4.109,4.109 0 1 0 0,8.217a4.109,4.109 0 0 0 0,-8.217zm0,1.441a2.667,2.667 0 1 1 0,5.334a2.667,2.667 0 0 1 0,-5.334z"/>
 </g>
</svg>