<svg width="16" height="16" xmlns="http://www.w3.org/2000/svg" class="bi bi-telephone-fill">

 <g>
  <title>background</title>
  <rect fill="none" id="canvas_background" height="402" width="582" y="-1" x="-1"/>
 </g>
 <g>
  <title>Layer 1</title>
  <path fill="#00142d" id="svg_1" d="m1.885,0.511a1.745,1.745 0 0 1 2.61,0.163l1.795,2.306c0.329,0.423 0.445,0.974 0.315,1.494l-0.547,2.19a0.678,0.678 0 0 0 0.178,0.643l2.457,2.457a0.678,0.678 0 0 0 0.644,0.178l2.189,-0.547a1.745,1.745 0 0 1 1.494,0.315l2.306,1.794c0.829,0.645 0.905,1.87 0.163,2.611l-1.034,1.034c-0.74,0.74 -1.846,1.065 -2.877,0.702a18.634,18.634 0 0 1 -7.01,-4.42a18.634,18.634 0 0 1 -4.42,-7.009c-0.362,-1.03 -0.037,-2.137 0.703,-2.877l1.034,-1.034z" fill-rule="evenodd"/>
 </g>
</svg>