<svg width="16" height="16" xmlns="http://www.w3.org/2000/svg" class="bi bi-youtube">

 <g>
  <title>background</title>
  <rect fill="none" id="canvas_background" height="402" width="582" y="-1" x="-1"/>
 </g>
 <g>
  <title>Layer 1</title>
  <path fill="#00142d" id="svg_1" d="m8.051,1.999l0.089,0c0.822,0.003 4.987,0.033 6.11,0.335a2.01,2.01 0 0 1 1.415,1.42c0.101,0.38 0.172,0.883 0.22,1.402l0.01,0.104l0.022,0.26l0.008,0.104c0.065,0.914 0.073,1.77 0.074,1.957l0,0.075c-0.001,0.194 -0.01,1.108 -0.082,2.06l-0.008,0.105l-0.009,0.104c-0.05,0.572 -0.124,1.14 -0.235,1.558a2.007,2.007 0 0 1 -1.415,1.42c-1.16,0.312 -5.569,0.334 -6.18,0.335l-0.142,0c-0.309,0 -1.587,-0.006 -2.927,-0.052l-0.17,-0.006l-0.087,-0.004l-0.171,-0.007l-0.171,-0.007c-1.11,-0.049 -2.167,-0.128 -2.654,-0.26a2.007,2.007 0 0 1 -1.415,-1.419c-0.111,-0.417 -0.185,-0.986 -0.235,-1.558l-0.008,-0.105l-0.008,-0.104a31.4,31.4 0 0 1 -0.082,-2.036l0,-0.122c0.002,-0.215 0.01,-0.958 0.064,-1.778l0.007,-0.103l0.003,-0.052l0.008,-0.104l0.022,-0.26l0.01,-0.104c0.048,-0.519 0.119,-1.023 0.22,-1.402a2.007,2.007 0 0 1 1.415,-1.42c0.487,-0.13 1.544,-0.21 2.654,-0.26l0.17,-0.007l0.172,-0.006l0.086,-0.003l0.171,-0.007a99.788,99.788 0 0 1 2.856,-0.052l0.193,0l0,-0.001zm-1.651,3.21l0,4.818l4.157,-2.408l-4.157,-2.41z"/>
 </g>
</svg>